<svg data-v-423bf9ae="" xmlns="http://www.w3.org/2000/svg" viewBox="0 0 314.61164737289334 60" class="font"><!----><!----><defs data-v-423bf9ae=""><linearGradient data-v-423bf9ae="" gradientTransform="rotate(25)" id="b366e00f-da67-4aee-b834-2d02cb19571e" x1="0%" y1="0%" x2="100%" y2="0%"><stop data-v-423bf9ae="" offset="0%" style="stop-color: rgb(81, 6, 255); stop-opacity: 1;"></stop><stop data-v-423bf9ae="" offset="100%" style="stop-color: rgb(97, 203, 242); stop-opacity: 1;"></stop></linearGradient></defs><g data-v-423bf9ae="" id="8a3d9074-4b93-4c51-b8d9-57d36589bfdd" fill="url(#b366e00f-da67-4aee-b834-2d02cb19571e)" transform="matrix(4.854369066878265,0,0,4.854369066878265,-1.5533972901873483,-20.38834867815413)"><path d="M7.69 4.20L7.69 4.20Q7.80 4.20 7.87 4.27L7.87 4.27L7.87 4.27Q7.94 4.34 7.94 4.45L7.94 4.45L7.94 5.95L7.94 5.95Q7.94 6.06 7.87 6.13L7.87 6.13L7.87 6.13Q7.80 6.20 7.69 6.20L7.69 6.20L5.35 6.20L5.35 6.20Q5.25 6.20 5.25 6.30L5.25 6.30L5.25 13.75L5.25 13.75Q5.25 13.86 5.18 13.93L5.18 13.93L5.18 13.93Q5.11 14 5.00 14L5.00 14L3.18 14L3.18 14Q3.07 14 3.00 13.93L3.00 13.93L3.00 13.93Q2.93 13.86 2.93 13.75L2.93 13.75L2.93 6.30L2.93 6.30Q2.93 6.20 2.83 6.20L2.83 6.20L0.57 6.20L0.57 6.20Q0.46 6.20 0.39 6.13L0.39 6.13L0.39 6.13Q0.32 6.06 0.32 5.95L0.32 5.95L0.32 4.45L0.32 4.45Q0.32 4.34 0.39 4.27L0.39 4.27L0.39 4.27Q0.46 4.20 0.57 4.20L0.57 4.20L7.69 4.20ZM12.49 12.14L12.49 12.14Q12.92 12.14 13.29 12.00L13.29 12.00L13.29 12.00Q13.66 11.87 13.92 11.65L13.92 11.65L13.92 11.65Q14 11.55 14.10 11.55L14.10 11.55L14.10 11.55Q14.18 11.55 14.27 11.65L14.27 11.65L15.13 12.68L15.13 12.68Q15.22 12.78 15.22 12.87L15.22 12.87L15.22 12.87Q15.22 12.96 15.13 13.05L15.13 13.05L15.13 13.05Q14.66 13.55 13.93 13.83L13.93 13.83L13.93 13.83Q13.20 14.11 12.38 14.11L12.38 14.11L12.38 14.11Q11.42 14.11 10.69 13.77L10.69 13.77L10.69 13.77Q9.95 13.43 9.48 12.81L9.48 12.81L9.48 12.81Q8.71 11.83 8.71 10.32L8.71 10.32L8.71 10.32Q8.71 9.65 8.86 9.06L8.86 9.06L8.86 9.06Q9.17 7.97 10.07 7.30L10.07 7.30L10.07 7.30Q10.96 6.64 12.17 6.64L12.17 6.64L12.17 6.64Q13.57 6.64 14.43 7.50L14.43 7.50L14.43 7.50Q15.29 8.37 15.55 9.93L15.55 9.93L15.55 9.93Q15.61 10.32 15.64 10.78L15.64 10.78L15.64 10.78Q15.64 11.03 15.39 11.03L15.39 11.03L11.16 11.03L11.16 11.03Q11.12 11.03 11.08 11.06L11.08 11.06L11.08 11.06Q11.05 11.09 11.06 11.14L11.06 11.14L11.14 11.42L11.14 11.42Q11.28 11.76 11.63 11.95L11.63 11.95L11.63 11.95Q11.98 12.14 12.49 12.14L12.49 12.14ZM12.12 8.64L12.12 8.64Q11.41 8.64 11.16 9.32L11.16 9.32L11.16 9.32Q11.10 9.46 11.09 9.53L11.09 9.53L11.09 9.56L11.09 9.56Q11.09 9.65 11.19 9.65L11.19 9.65L13.10 9.65L13.10 9.65Q13.16 9.65 13.18 9.61L13.18 9.61L13.18 9.61Q13.20 9.58 13.19 9.53L13.19 9.53L13.13 9.35L13.13 9.35Q13.02 9.02 12.77 8.83L12.77 8.83L12.77 8.83Q12.52 8.64 12.12 8.64L12.12 8.64ZM16.86 14L16.86 14Q16.74 14 16.67 13.93L16.67 13.93L16.67 13.93Q16.60 13.86 16.60 13.75L16.60 13.75L16.60 4.45L16.60 4.45Q16.60 4.34 16.67 4.27L16.67 4.27L16.67 4.27Q16.74 4.20 16.86 4.20L16.86 4.20L18.68 4.20L18.68 4.20Q18.79 4.20 18.86 4.27L18.86 4.27L18.86 4.27Q18.93 4.34 18.93 4.45L18.93 4.45L18.93 13.75L18.93 13.75Q18.93 13.86 18.86 13.93L18.86 13.93L18.86 13.93Q18.79 14 18.68 14L18.68 14L16.86 14ZM23.79 12.14L23.79 12.14Q24.22 12.14 24.59 12.00L24.59 12.00L24.59 12.00Q24.96 11.87 25.21 11.65L25.21 11.65L25.21 11.65Q25.30 11.55 25.40 11.55L25.40 11.55L25.40 11.55Q25.48 11.55 25.56 11.65L25.56 11.65L26.43 12.68L26.43 12.68Q26.52 12.78 26.52 12.87L26.52 12.87L26.52 12.87Q26.52 12.96 26.43 13.05L26.43 13.05L26.43 13.05Q25.96 13.55 25.23 13.83L25.23 13.83L25.23 13.83Q24.50 14.11 23.67 14.11L23.67 14.11L23.67 14.11Q22.72 14.11 21.99 13.77L21.99 13.77L21.99 13.77Q21.25 13.43 20.78 12.81L20.78 12.81L20.78 12.81Q20.01 11.83 20.01 10.32L20.01 10.32L20.01 10.32Q20.01 9.65 20.16 9.06L20.16 9.06L20.16 9.06Q20.47 7.97 21.36 7.30L21.36 7.30L21.36 7.30Q22.26 6.64 23.46 6.64L23.46 6.64L23.46 6.64Q24.86 6.64 25.73 7.50L25.73 7.50L25.73 7.50Q26.59 8.37 26.85 9.93L26.85 9.93L26.85 9.93Q26.91 10.32 26.94 10.78L26.94 10.78L26.94 10.78Q26.94 11.03 26.68 11.03L26.68 11.03L22.46 11.03L22.46 11.03Q22.41 11.03 22.38 11.06L22.38 11.06L22.38 11.06Q22.34 11.09 22.36 11.14L22.36 11.14L22.44 11.42L22.44 11.42Q22.58 11.76 22.93 11.95L22.93 11.95L22.93 11.95Q23.28 12.14 23.79 12.14L23.79 12.14ZM23.42 8.64L23.42 8.64Q22.71 8.64 22.46 9.32L22.46 9.32L22.46 9.32Q22.40 9.46 22.39 9.53L22.39 9.53L22.39 9.56L22.39 9.56Q22.39 9.65 22.48 9.65L22.48 9.65L24.40 9.65L24.40 9.65Q24.46 9.65 24.48 9.61L24.48 9.61L24.48 9.61Q24.50 9.58 24.49 9.53L24.49 9.53L24.43 9.35L24.43 9.35Q24.32 9.02 24.07 8.83L24.07 8.83L24.07 8.83Q23.81 8.64 23.42 8.64L23.42 8.64ZM30.95 14.11L30.95 14.11Q29.96 14.11 29.23 13.84L29.23 13.84L29.23 13.84Q28.49 13.57 28.09 13.07L28.09 13.07L28.09 13.07Q27.69 12.57 27.69 11.93L27.69 11.93L27.69 11.86L27.69 11.86Q27.69 11.75 27.76 11.68L27.76 11.68L27.76 11.68Q27.83 11.61 27.94 11.61L27.94 11.61L29.67 11.61L29.67 11.61Q29.92 11.61 29.92 11.69L29.92 11.69L29.92 11.77L29.92 11.77Q29.92 12.04 30.21 12.21L30.21 12.21L30.21 12.21Q30.49 12.39 30.94 12.39L30.94 12.39L30.94 12.39Q31.33 12.39 31.57 12.26L31.57 12.26L31.57 12.26Q31.81 12.12 31.81 11.90L31.81 11.90L31.81 11.90Q31.81 11.68 31.56 11.57L31.56 11.57L31.56 11.57Q31.30 11.47 30.76 11.37L30.76 11.37L30.76 11.37Q29.88 11.20 29.33 10.96L29.33 10.96L29.33 10.96Q28.63 10.67 28.20 10.22L28.20 10.22L28.20 10.22Q27.78 9.77 27.78 9.02L27.78 9.02L27.78 9.02Q27.78 7.92 28.62 7.29L28.62 7.29L28.62 7.29Q29.47 6.65 30.86 6.65L30.86 6.65L30.86 6.65Q31.79 6.65 32.50 6.95L32.50 6.95L32.50 6.95Q33.21 7.25 33.60 7.80L33.60 7.80L33.60 7.80Q33.99 8.34 33.99 9.06L33.99 9.06L33.99 9.06Q33.99 9.13 33.92 9.18L33.92 9.18L33.92 9.18Q33.85 9.23 33.74 9.23L33.74 9.23L32.07 9.23L32.07 9.23Q31.82 9.23 31.82 9.14L31.82 9.14L31.82 9.06L31.82 9.06Q31.82 8.79 31.57 8.62L31.57 8.62L31.57 8.62Q31.32 8.46 30.88 8.46L30.88 8.46L30.88 8.46Q30.49 8.46 30.25 8.59L30.25 8.59L30.25 8.59Q30.00 8.72 30.00 8.96L30.00 8.96L30.00 8.96Q30.00 9.20 30.27 9.30L30.27 9.30L30.27 9.30Q30.53 9.41 31.16 9.53L31.16 9.53L31.16 9.53Q32.02 9.70 32.31 9.80L32.31 9.80L32.31 9.80Q33.17 10.08 33.65 10.56L33.65 10.56L33.65 10.56Q34.13 11.03 34.13 11.83L34.13 11.83L34.13 11.83Q34.13 12.92 33.27 13.52L33.27 13.52L33.27 13.52Q32.41 14.11 30.95 14.11L30.95 14.11ZM38.36 14.11L38.36 14.11Q37.21 14.11 36.35 13.54L36.35 13.54L36.35 13.54Q35.49 12.96 35.13 11.96L35.13 11.96L35.13 11.96Q34.86 11.28 34.86 10.35L34.86 10.35L34.86 10.35Q34.86 9.41 35.13 8.74L35.13 8.74L35.13 8.74Q35.48 7.76 36.34 7.20L36.34 7.20L36.34 7.20Q37.21 6.65 38.36 6.65L38.36 6.65L38.36 6.65Q39.52 6.65 40.40 7.22L40.40 7.22L40.40 7.22Q41.29 7.80 41.59 8.68L41.59 8.68L41.59 8.68Q41.68 8.90 41.71 9.14L41.71 9.14L41.71 9.20L41.71 9.20Q41.71 9.38 41.48 9.42L41.48 9.42L39.70 9.69L39.63 9.70L39.63 9.70Q39.45 9.70 39.42 9.53L39.42 9.53L39.37 9.34L39.37 9.34Q39.28 9.03 39.00 8.83L39.00 8.83L39.00 8.83Q38.72 8.64 38.35 8.64L38.35 8.64L38.35 8.64Q37.60 8.64 37.37 9.30L37.37 9.30L37.37 9.30Q37.21 9.69 37.21 10.36L37.21 10.36L37.21 10.36Q37.21 10.96 37.35 11.41L37.35 11.41L37.35 11.41Q37.62 12.12 38.35 12.12L38.35 12.12L38.35 12.12Q38.71 12.12 38.97 11.94L38.97 11.94L38.97 11.94Q39.23 11.76 39.35 11.41L39.35 11.41L39.37 11.34L39.37 11.34L39.37 11.34Q39.38 11.27 39.47 11.19L39.47 11.19L39.47 11.19Q39.56 11.12 39.66 11.13L39.66 11.13L41.45 11.41L41.45 11.41Q41.71 11.45 41.66 11.69L41.66 11.69L41.66 11.69Q41.64 11.91 41.59 12.04L41.59 12.04L41.59 12.04Q41.26 13.02 40.38 13.57L40.38 13.57L40.38 13.57Q39.51 14.11 38.36 14.11L38.36 14.11ZM45.96 14.11L45.96 14.11Q44.70 14.11 43.83 13.44L43.83 13.44L43.83 13.44Q42.95 12.77 42.64 11.62L42.64 11.62L42.64 11.62Q42.48 11.05 42.48 10.36L42.48 10.36L42.48 10.36Q42.48 9.66 42.66 9.00L42.66 9.00L42.66 9.00Q42.98 7.90 43.85 7.27L43.85 7.27L43.85 7.27Q44.73 6.65 45.98 6.65L45.98 6.65L45.98 6.65Q47.21 6.65 48.06 7.27L48.06 7.27L48.06 7.27Q48.92 7.90 49.25 8.99L49.25 8.99L49.25 8.99Q49.45 9.62 49.45 10.33L49.45 10.33L49.45 10.33Q49.45 10.98 49.29 11.56L49.29 11.56L49.29 11.56Q49 12.74 48.12 13.43L48.12 13.43L48.12 13.43Q47.24 14.11 45.96 14.11L45.96 14.11ZM45.96 12.12L45.96 12.12Q46.37 12.12 46.64 11.87L46.64 11.87L46.64 11.87Q46.91 11.61 47.03 11.16L47.03 11.16L47.03 11.16Q47.11 10.79 47.11 10.36L47.11 10.36L47.11 10.36Q47.11 9.94 47.01 9.55L47.01 9.55L47.01 9.55Q46.90 9.11 46.63 8.88L46.63 8.88L46.63 8.88Q46.37 8.64 45.96 8.64L45.96 8.64L45.96 8.64Q45.54 8.64 45.28 8.88L45.28 8.88L45.28 8.88Q45.02 9.11 44.91 9.55L44.91 9.55L44.91 9.55Q44.81 9.86 44.81 10.36L44.81 10.36L44.81 10.36Q44.81 10.79 44.90 11.16L44.90 11.16L44.90 11.16Q45.02 11.61 45.29 11.87L45.29 11.87L45.29 11.87Q45.56 12.12 45.96 12.12L45.96 12.12ZM57.26 8.81L57.26 8.81Q57.48 9.49 57.48 10.42L57.48 10.42L57.48 10.42Q57.48 11.41 57.19 12.18L57.19 12.18L57.19 12.18Q56.87 13.05 56.15 13.59L56.15 13.59L56.15 13.59Q55.43 14.13 54.53 14.13L54.53 14.13L54.53 14.13Q53.47 14.13 52.93 13.48L52.93 13.48L52.93 13.48Q52.89 13.43 52.86 13.44L52.86 13.44L52.86 13.44Q52.82 13.45 52.82 13.52L52.82 13.52L52.82 16.31L52.82 16.31Q52.82 16.42 52.75 16.49L52.75 16.49L52.75 16.49Q52.68 16.56 52.57 16.56L52.57 16.56L50.75 16.56L50.75 16.56Q50.64 16.56 50.57 16.49L50.57 16.49L50.57 16.49Q50.50 16.42 50.50 16.31L50.50 16.31L50.50 7.01L50.50 7.01Q50.50 6.90 50.57 6.83L50.57 6.83L50.57 6.83Q50.64 6.76 50.75 6.76L50.75 6.76L52.57 6.76L52.57 6.76Q52.68 6.76 52.75 6.83L52.75 6.83L52.75 6.83Q52.82 6.90 52.82 7.01L52.82 7.01L52.82 7.35L52.82 7.35Q52.82 7.42 52.86 7.43L52.86 7.43L52.86 7.43Q52.89 7.45 52.93 7.39L52.93 7.39L52.93 7.39Q53.47 6.65 54.53 6.65L54.53 6.65L54.53 6.65Q55.44 6.65 56.21 7.25L56.21 7.25L56.21 7.25Q56.98 7.85 57.26 8.81L57.26 8.81ZM54.74 11.59L54.74 11.59Q54.99 11.13 54.99 10.37L54.99 10.37L54.99 10.37Q54.99 9.66 54.75 9.21L54.75 9.21L54.75 9.21Q54.46 8.69 53.90 8.69L53.90 8.69L53.90 8.69Q53.37 8.69 53.07 9.23L53.07 9.23L53.07 9.23Q52.84 9.67 52.84 10.37L52.84 10.37L52.84 10.37Q52.84 11.14 53.09 11.61L53.09 11.61L53.09 11.61Q53.38 12.08 53.90 12.08L53.90 12.08L53.90 12.08Q54.45 12.08 54.74 11.59L54.74 11.59ZM61.98 12.14L61.98 12.14Q62.41 12.14 62.78 12.00L62.78 12.00L62.78 12.00Q63.15 11.87 63.41 11.65L63.41 11.65L63.41 11.65Q63.49 11.55 63.59 11.55L63.59 11.55L63.59 11.55Q63.67 11.55 63.76 11.65L63.76 11.65L64.62 12.68L64.62 12.68Q64.71 12.78 64.71 12.87L64.71 12.87L64.71 12.87Q64.71 12.96 64.62 13.05L64.62 13.05L64.62 13.05Q64.15 13.55 63.42 13.83L63.42 13.83L63.42 13.83Q62.69 14.11 61.87 14.11L61.87 14.11L61.87 14.11Q60.91 14.11 60.18 13.77L60.18 13.77L60.18 13.77Q59.44 13.43 58.97 12.81L58.97 12.81L58.97 12.81Q58.20 11.83 58.20 10.32L58.20 10.32L58.20 10.32Q58.20 9.65 58.35 9.06L58.35 9.06L58.35 9.06Q58.66 7.97 59.56 7.30L59.56 7.30L59.56 7.30Q60.45 6.64 61.66 6.64L61.66 6.64L61.66 6.64Q63.06 6.64 63.92 7.50L63.92 7.50L63.92 7.50Q64.78 8.37 65.04 9.93L65.04 9.93L65.04 9.93Q65.10 10.32 65.13 10.78L65.13 10.78L65.13 10.78Q65.13 11.03 64.88 11.03L64.88 11.03L60.65 11.03L60.65 11.03Q60.61 11.03 60.57 11.06L60.57 11.06L60.57 11.06Q60.54 11.09 60.55 11.14L60.55 11.14L60.63 11.42L60.63 11.42Q60.77 11.76 61.12 11.95L61.12 11.95L61.12 11.95Q61.47 12.14 61.98 12.14L61.98 12.14ZM61.61 8.64L61.61 8.64Q60.90 8.64 60.65 9.32L60.65 9.32L60.65 9.32Q60.59 9.46 60.58 9.53L60.58 9.53L60.58 9.56L60.58 9.56Q60.58 9.65 60.68 9.65L60.68 9.65L62.59 9.65L62.59 9.65Q62.65 9.65 62.67 9.61L62.67 9.61L62.67 9.61Q62.69 9.58 62.68 9.53L62.68 9.53L62.62 9.35L62.62 9.35Q62.51 9.02 62.26 8.83L62.26 8.83L62.26 8.83Q62.01 8.64 61.61 8.64L61.61 8.64Z"></path></g><!----><!----></svg>